<?xml version="1.0" encoding="UTF-8" standalone="no"?>
<!-- Created with Inkscape (http://www.inkscape.org/) -->

<svg
   xmlns:dc="http://purl.org/dc/elements/1.1/"
   xmlns:cc="http://creativecommons.org/ns#"
   xmlns:rdf="http://www.w3.org/1999/02/22-rdf-syntax-ns#"
   xmlns:svg="http://www.w3.org/2000/svg"
   xmlns="http://www.w3.org/2000/svg"
   xmlns:sodipodi="http://sodipodi.sourceforge.net/DTD/sodipodi-0.dtd"
   xmlns:inkscape="http://www.inkscape.org/namespaces/inkscape"
   width="200"
   height="300"
   viewBox="0 0 52.916665 79.375002"
   version="1.1"
   id="svg839"
   inkscape:version="0.92.4 (unknown)"
   sodipodi:docname="custom_thumbnail_cs_v2.svg"
   inkscape:export-filename="/home/jakubrihak/Obrázky/dspace_custom_thumb/custom_thumbnail_cs_v2.png"
   inkscape:export-xdpi="96"
   inkscape:export-ydpi="96">
  <defs
     id="defs833" />
  <sodipodi:namedview
     id="base"
     pagecolor="#ffffff"
     bordercolor="#666666"
     borderopacity="1.0"
     inkscape:pageopacity="0"
     inkscape:pageshadow="2"
     inkscape:zoom="2.0778736"
     inkscape:cx="51.204754"
     inkscape:cy="162.0457"
     inkscape:document-units="px"
     inkscape:current-layer="layer1"
     showgrid="false"
     units="px"
     inkscape:snap-page="true"
     inkscape:snap-object-midpoints="true"
     inkscape:window-width="1920"
     inkscape:window-height="1016"
     inkscape:window-x="0"
     inkscape:window-y="27"
     inkscape:window-maximized="1" />
  <metadata
     id="metadata836">
    <rdf:RDF>
      <cc:Work
         rdf:about="">
        <dc:format>image/svg+xml</dc:format>
        <dc:type
           rdf:resource="http://purl.org/dc/dcmitype/StillImage" />
        <dc:title></dc:title>
      </cc:Work>
    </rdf:RDF>
  </metadata>
  <g
     inkscape:label="Layer 1"
     inkscape:groupmode="layer"
     id="layer1"
     transform="translate(0,-217.62497)">
    <g
       id="g1398"
       transform="matrix(0.99492381,0,0,0.99492381,0.13430778,-1.6742502)"
       style="stroke-width:1.00510204" />
    <flowRoot
       xml:space="preserve"
       id="flowRoot2161"
       style="font-style:normal;font-weight:normal;font-size:40px;line-height:1.25;font-family:sans-serif;letter-spacing:0px;word-spacing:0px;fill:#000000;fill-opacity:1;stroke:none"
       transform="matrix(0.26458333,0,0,0.26458333,0,217.62497)"><flowRegion
         id="flowRegion2163"><rect
           id="rect2165"
           width="200"
           height="44.446712"
           x="0"
           y="255.55328" /></flowRegion><flowPara
         id="flowPara2167">ppRDFASDFA</flowPara></flowRoot>    <flowRoot
       xml:space="preserve"
       id="flowRoot7368"
       style="font-style:normal;font-weight:normal;font-size:40px;line-height:1.25;font-family:sans-serif;letter-spacing:0px;word-spacing:0px;fill:#000000;fill-opacity:1;stroke:none"
       transform="matrix(0.26458333,0,0,0.26458333,0,217.62497)"><flowRegion
         id="flowRegion7370"><rect
           id="rect7372"
           width="184.32304"
           height="40.425941"
           x="0"
           y="259.57407" /></flowRegion><flowPara
         id="flowPara7374">PR</flowPara></flowRoot>    <flowRoot
       xml:space="preserve"
       id="flowRoot7376"
       style="font-style:normal;font-weight:normal;font-size:40px;line-height:1.25;font-family:sans-serif;letter-spacing:0px;word-spacing:0px;fill:#000000;fill-opacity:1;stroke:none"
       transform="matrix(0.26458333,0,0,0.26458333,0,217.62497)"><flowRegion
         id="flowRegion7378"><rect
           id="rect7380"
           width="171.81026"
           height="40.425941"
           x="10.587747"
           y="259.57407" /></flowRegion><flowPara
         id="flowPara7382">NEVE5E</flowPara></flowRoot>    <flowRoot
       xml:space="preserve"
       id="flowRoot7384"
       style="font-style:normal;font-weight:normal;font-size:40px;line-height:1.25;font-family:sans-serif;letter-spacing:0px;word-spacing:0px;fill:#000000;fill-opacity:1;stroke:none"
       transform="matrix(0.26458333,0,0,0.26458333,0,217.62497)"><flowRegion
         id="flowRegion7386"><rect
           id="rect7388"
           width="174.21657"
           height="49.088646"
           x="9.6252241"
           y="238.87982" /></flowRegion><flowPara
         id="flowPara7390">JNNEVEŘE</flowPara></flowRoot>    <flowRoot
       xml:space="preserve"
       id="flowRoot7392"
       style="fill:black;fill-opacity:1;stroke:none;font-family:Palanquin;font-style:normal;font-weight:200;font-size:40px;line-height:1.25;letter-spacing:0px;word-spacing:0px;-inkscape-font-specification:'Palanquin, Ultra-Light';font-stretch:normal;font-variant:normal;text-anchor:start;text-align:start;writing-mode:lr;font-variant-ligatures:normal;font-variant-caps:normal;font-variant-numeric:normal;font-feature-settings:normal;"><flowRegion
         id="flowRegion7394"
         style="-inkscape-font-specification:'Palanquin, Ultra-Light';font-family:Palanquin;font-weight:200;font-style:normal;font-stretch:normal;font-variant:normal;font-size:40px;text-anchor:start;text-align:start;writing-mode:lr;font-variant-ligatures:normal;font-variant-caps:normal;font-variant-numeric:normal;font-feature-settings:normal;"><rect
           id="rect7396"
           width="200"
           height="54.863781"
           x="0"
           y="225.88577"
           style="-inkscape-font-specification:'Palanquin, Ultra-Light';font-family:Palanquin;font-weight:200;font-style:normal;font-stretch:normal;font-variant:normal;font-size:40px;text-anchor:start;text-align:start;writing-mode:lr;font-variant-ligatures:normal;font-variant-caps:normal;font-variant-numeric:normal;font-feature-settings:normal;" /></flowRegion><flowPara
         id="flowPara7400"></flowPara></flowRoot>    <g
       id="g7458"
       transform="translate(-7.3499389)">
      <path
         inkscape:connector-curvature="0"
         id="rect6610"
         d="m 24.870833,217.62497 c -7.919725,0 -14.295768,6.37553 -14.295768,14.29525 v 10.27793 H 9.0351074 c -0.9335449,0 -1.6851685,0.75162 -1.6851685,1.68517 v 34.84645 c 0,0.93354 0.7516236,1.68517 1.6851685,1.68517 H 43.881558 c 0.933545,0 1.685168,-0.75163 1.685168,-1.68517 v -34.84645 c 0,-0.93355 -0.751623,-1.68517 -1.685168,-1.68517 h -1.539957 v -10.27793 c 0,-7.91972 -6.376043,-14.29525 -14.295768,-14.29525 z m 0.434599,4.52582 h 2.305802 c 5.75233,0 10.383345,4.63102 10.383345,10.38335 v 9.66401 H 14.922087 v -9.66401 c 0,-5.75233 4.631016,-10.38335 10.383345,-10.38335 z m 1.152901,34.35191 a 4.8034596,4.8034596 0 0 1 4.803325,4.80384 4.8034596,4.8034596 0 0 1 -2.336808,4.11551 l 1.793687,6.9758 h -8.520409 l 1.793689,-6.97631 a 4.8034596,4.8034596 0 0 1 -2.336808,-4.115 4.8034596,4.8034596 0 0 1 4.803324,-4.80384 z m 0,1.10277 a 3.7009728,3.7009728 0 0 0 -3.701066,3.70107 3.7009728,3.7009728 0 0 0 2.414323,3.46491 l -1.260905,6.66367 h 5.095297 l -1.26039,-6.66109 a 3.7009728,3.7009728 0 0 0 2.413807,-3.46749 3.7009728,3.7009728 0 0 0 -3.701066,-3.70107 z"
         style="opacity:1;fill:#cc2c32;fill-opacity:1;stroke:none;stroke-width:2.64583325;stroke-miterlimit:4;stroke-dasharray:none;stroke-opacity:1" />
      <g
         transform="matrix(0.75878547,0,0,1,2.376268,13.37001)"
         id="text7404"
         style="font-style:normal;font-weight:normal;font-size:10.58333302px;line-height:1.25;font-family:sans-serif;letter-spacing:0px;word-spacing:0px;fill:#000000;fill-opacity:1;stroke:none;stroke-width:0.30374068"
         aria-label="NEVEŘEJNÉ">
        <path
           inkscape:connector-curvature="0"
           id="path7406"
           style="font-style:normal;font-variant:normal;font-weight:200;font-stretch:normal;font-size:10.58333302px;font-family:Palanquin;-inkscape-font-specification:'Palanquin, Ultra-Light';font-variant-ligatures:normal;font-variant-caps:normal;font-variant-numeric:normal;font-feature-settings:normal;text-align:start;writing-mode:lr-tb;text-anchor:start;stroke-width:0.30374068"
           d="m 6.5548489,283.62994 v -7.19666 h 0.3704167 l 3.7253334,5.30225 0.359833,0.62441 v -5.92666 h 0.592667 v 7.19666 h -0.359834 l -3.9475828,-5.69383 -0.1481666,-0.30692 v 6.00075 z" />
        <path
           inkscape:connector-curvature="0"
           id="path7408"
           style="font-style:normal;font-variant:normal;font-weight:200;font-stretch:normal;font-size:10.58333302px;font-family:Palanquin;-inkscape-font-specification:'Palanquin, Ultra-Light';font-variant-ligatures:normal;font-variant-caps:normal;font-variant-numeric:normal;font-feature-settings:normal;text-align:start;writing-mode:lr-tb;text-anchor:start;stroke-width:0.30374068"
           d="m 13.748208,283.62994 v -7.19666 h 3.7465 l 0.05292,0.4445 h -3.20675 v 2.84691 h 2.116667 l 0.05292,0.4445 h -2.169583 v 2.99509 h 3.386667 l 0.0635,0.46566 z" />
        <path
           inkscape:connector-curvature="0"
           id="path7410"
           style="font-style:normal;font-variant:normal;font-weight:200;font-stretch:normal;font-size:10.58333302px;font-family:Palanquin;-inkscape-font-specification:'Palanquin, Ultra-Light';font-variant-ligatures:normal;font-variant-caps:normal;font-variant-numeric:normal;font-feature-settings:normal;text-align:start;writing-mode:lr-tb;text-anchor:start;stroke-width:0.30374068"
           d="m 21.045747,283.62994 -2.741083,-7.08025 0.582083,-0.11641 2.44475,6.43466 2.3495,-6.43466 h 0.5715 l -2.614083,7.19666 z" />
        <path
           inkscape:connector-curvature="0"
           id="path7412"
           style="font-style:normal;font-variant:normal;font-weight:200;font-stretch:normal;font-size:10.58333302px;font-family:Palanquin;-inkscape-font-specification:'Palanquin, Ultra-Light';font-variant-ligatures:normal;font-variant-caps:normal;font-variant-numeric:normal;font-feature-settings:normal;text-align:start;writing-mode:lr-tb;text-anchor:start;stroke-width:0.30374068"
           d="m 25.468423,283.62994 v -7.19666 h 3.7465 l 0.05292,0.4445 h -3.20675 v 2.84691 h 2.116666 l 0.05292,0.4445 H 26.06109 v 2.99509 h 3.386666 l 0.0635,0.46566 z" />
        <path
           inkscape:connector-curvature="0"
           id="path7414"
           style="font-style:normal;font-variant:normal;font-weight:200;font-stretch:normal;font-size:10.58333302px;font-family:Palanquin;-inkscape-font-specification:'Palanquin, Ultra-Light';font-variant-ligatures:normal;font-variant-caps:normal;font-variant-numeric:normal;font-feature-settings:normal;text-align:start;writing-mode:lr-tb;text-anchor:start;stroke-width:0.30374068"
           d="m 33.644378,274.18961 h 0.592666 l -1.17475,1.61925 h -0.529166 l -1.164167,-1.61925 h 0.592667 q 0.201083,0.29633 0.41275,0.60325 0.211666,0.30692 0.423333,0.60325 z m -0.85725,2.74108 h -1.227667 v 3.19617 h 1.11125 q 0.804333,0 1.439333,-0.35983 0.645583,-0.35984 0.645583,-1.25942 0,-0.92075 -0.5715,-1.24883 -0.571499,-0.32809 -1.396999,-0.32809 z m 2.571749,1.55575 q -0.01058,0.74084 -0.370416,1.2065 -0.359834,0.45509 -0.931333,0.67734 l 1.873249,3.25966 h -0.66675 l -1.714499,-3.10091 q -0.22225,0.0423 -0.4445,0.0635 -0.22225,0.0106 -0.455084,0.0106 h -1.090083 v 3.02683 h -0.592667 v -7.19666 h 1.799167 q 1.121833,0 1.852083,0.46566 0.740833,0.45509 0.740833,1.5875 z" />
        <path
           inkscape:connector-curvature="0"
           id="path7416"
           style="font-style:normal;font-variant:normal;font-weight:200;font-stretch:normal;font-size:10.58333302px;font-family:Palanquin;-inkscape-font-specification:'Palanquin, Ultra-Light';font-variant-ligatures:normal;font-variant-caps:normal;font-variant-numeric:normal;font-feature-settings:normal;text-align:start;writing-mode:lr-tb;text-anchor:start;stroke-width:0.30374068"
           d="m 37.436685,283.62994 v -7.19666 h 3.7465 l 0.05292,0.4445 h -3.206749 v 2.84691 h 2.116666 l 0.05292,0.4445 h -2.169583 v 2.99509 h 3.386666 l 0.0635,0.46566 z" />
        <path
           inkscape:connector-curvature="0"
           id="path7418"
           style="font-style:normal;font-variant:normal;font-weight:200;font-stretch:normal;font-size:10.58333302px;font-family:Palanquin;-inkscape-font-specification:'Palanquin, Ultra-Light';font-variant-ligatures:normal;font-variant-caps:normal;font-variant-numeric:normal;font-feature-settings:normal;text-align:start;writing-mode:lr-tb;text-anchor:start;stroke-width:0.30374068"
           d="m 42.987973,282.21178 v -5.7785 h 0.582083 v 5.9055 q 0,0.635 -0.243417,0.96308 -0.243416,0.32808 -1.005416,0.56092 l -0.254,-0.39159 q 0.529166,-0.20108 0.719666,-0.41275 0.201084,-0.21166 0.201084,-0.84666 z" />
        <path
           inkscape:connector-curvature="0"
           id="path7420"
           style="font-style:normal;font-variant:normal;font-weight:200;font-stretch:normal;font-size:10.58333302px;font-family:Palanquin;-inkscape-font-specification:'Palanquin, Ultra-Light';font-variant-ligatures:normal;font-variant-caps:normal;font-variant-numeric:normal;font-feature-settings:normal;text-align:start;writing-mode:lr-tb;text-anchor:start;stroke-width:0.30374068"
           d="m 45.684243,283.62994 v -7.19666 h 0.370417 l 3.725333,5.30225 0.359834,0.62441 v -5.92666 h 0.592666 v 7.19666 H 50.37266 l -3.947583,-5.69383 -0.148167,-0.30692 v 6.00075 z" />
        <path
           inkscape:connector-curvature="0"
           id="path7422"
           style="font-style:normal;font-variant:normal;font-weight:200;font-stretch:normal;font-size:10.58333302px;font-family:Palanquin;-inkscape-font-specification:'Palanquin, Ultra-Light';font-variant-ligatures:normal;font-variant-caps:normal;font-variant-numeric:normal;font-feature-settings:normal;text-align:start;writing-mode:lr-tb;text-anchor:start;stroke-width:0.30374068"
           d="m 54.846103,274.18961 h 0.709083 l -0.910167,1.61925 h -0.433916 z m -1.9685,9.44033 v -7.19666 h 3.7465 l 0.05292,0.4445 h -3.20675 v 2.84691 h 2.116667 l 0.05292,0.4445 h -2.169584 v 2.99509 h 3.386667 l 0.0635,0.46566 z" />
      </g>
    </g>
  </g>
</svg>
