<?xml version="1.0" encoding="UTF-8" standalone="no"?>
<!-- Created with Inkscape (http://www.inkscape.org/) -->

<svg
   xmlns:dc="http://purl.org/dc/elements/1.1/"
   xmlns:cc="http://creativecommons.org/ns#"
   xmlns:rdf="http://www.w3.org/1999/02/22-rdf-syntax-ns#"
   xmlns:svg="http://www.w3.org/2000/svg"
   xmlns="http://www.w3.org/2000/svg"
   xmlns:sodipodi="http://sodipodi.sourceforge.net/DTD/sodipodi-0.dtd"
   xmlns:inkscape="http://www.inkscape.org/namespaces/inkscape"
   width="200"
   height="300"
   viewBox="0 0 52.916665 79.375002"
   version="1.1"
   id="svg839"
   inkscape:version="0.92.4 (unknown)"
   sodipodi:docname="custom_thumbnail_en_v2.svg"
   inkscape:export-filename="/home/jakubrihak/Obrázky/dspace_custom_thumb/custom_thumbnail_en_v2.png"
   inkscape:export-xdpi="96"
   inkscape:export-ydpi="96">
  <defs
     id="defs833" />
  <sodipodi:namedview
     id="base"
     pagecolor="#ffffff"
     bordercolor="#666666"
     borderopacity="1.0"
     inkscape:pageopacity="0"
     inkscape:pageshadow="2"
     inkscape:zoom="1.4692785"
     inkscape:cx="-54.237975"
     inkscape:cy="137.46857"
     inkscape:document-units="px"
     inkscape:current-layer="layer1"
     showgrid="false"
     units="px"
     inkscape:snap-page="true"
     inkscape:snap-object-midpoints="true"
     inkscape:window-width="1920"
     inkscape:window-height="1016"
     inkscape:window-x="0"
     inkscape:window-y="27"
     inkscape:window-maximized="1"
     scale-x="0.06458" />
  <metadata
     id="metadata836">
    <rdf:RDF>
      <cc:Work
         rdf:about="">
        <dc:format>image/svg+xml</dc:format>
        <dc:type
           rdf:resource="http://purl.org/dc/dcmitype/StillImage" />
        <dc:title></dc:title>
      </cc:Work>
    </rdf:RDF>
  </metadata>
  <g
     inkscape:label="Layer 1"
     inkscape:groupmode="layer"
     id="layer1"
     transform="translate(0,-217.62497)">
    <g
       id="g1398"
       transform="matrix(0.99492381,0,0,0.99492381,0.13430778,-1.6742502)"
       style="stroke-width:1.00510204" />
    <flowRoot
       xml:space="preserve"
       id="flowRoot2161"
       style="font-style:normal;font-weight:normal;font-size:40px;line-height:1.25;font-family:sans-serif;letter-spacing:0px;word-spacing:0px;fill:#000000;fill-opacity:1;stroke:none"
       transform="matrix(0.26458333,0,0,0.26458333,0,217.62497)"><flowRegion
         id="flowRegion2163"><rect
           id="rect2165"
           width="200"
           height="44.446712"
           x="0"
           y="255.55328" /></flowRegion><flowPara
         id="flowPara2167">ppRDFASDFA</flowPara></flowRoot>    <g
       id="g7445"
       transform="translate(-7.3499389)">
      <g
         style="stroke-width:1.17671084"
         transform="matrix(0.72220501,0,0,1,6.5703716,2.8222597)"
         id="g2206">
        <path
           inkscape:connector-curvature="0"
           id="path2177"
           style="font-style:normal;font-variant:normal;font-weight:200;font-stretch:normal;font-size:40px;line-height:1.25;font-family:Palanquin;-inkscape-font-specification:'Palanquin, Ultra-Light';font-variant-ligatures:normal;font-variant-caps:normal;font-variant-numeric:normal;font-feature-settings:normal;text-align:start;letter-spacing:0px;word-spacing:0px;writing-mode:lr-tb;text-anchor:start;fill:#000000;fill-opacity:1;stroke:none;stroke-width:0.31133807"
           d="m 1.0795,294.17771 v -7.19667 h 2.5622535 q 1.5976404,0 2.6376138,0.49742 1.0550457,0.49742 1.0550457,1.67217 0,1.16416 -1.130406,1.70391 -1.1304059,0.52917 -2.7280463,0.52917 H 1.9235364 v 2.794 z m 2.6677581,-6.69925 H 1.9235364 v 3.41842 h 1.6579288 q 1.2057664,0 2.0498028,-0.41275 0.8440365,-0.42334 0.8440365,-1.32292 0,-0.93133 -0.7536041,-1.30175 -0.7385318,-0.381 -1.9744423,-0.381 z" />
        <path
           inkscape:connector-curvature="0"
           id="path2179"
           style="font-style:normal;font-variant:normal;font-weight:200;font-stretch:normal;font-size:40px;line-height:1.25;font-family:Palanquin;-inkscape-font-specification:'Palanquin, Ultra-Light';font-variant-ligatures:normal;font-variant-caps:normal;font-variant-numeric:normal;font-feature-settings:normal;text-align:start;letter-spacing:0px;word-spacing:0px;writing-mode:lr-tb;text-anchor:start;fill:#000000;fill-opacity:1;stroke:none;stroke-width:0.31133807"
           d="m 12.238255,287.47846 h -1.748361 v 3.19617 h 1.582568 q 1.145478,0 2.049804,-0.35984 0.919396,-0.35983 0.919396,-1.25941 0,-0.92075 -0.813892,-1.24884 -0.813893,-0.32808 -1.989515,-0.32808 z m 3.662516,1.55575 q -0.01507,0.74083 -0.527524,1.2065 -0.51245,0.45508 -1.326342,0.67733 l 2.667758,3.25967 h -0.949541 l -2.441677,-3.10092 q -0.316514,0.0423 -0.633027,0.0635 -0.316514,0.0106 -0.6481,0.0106 h -1.552424 v 3.02683 H 9.6458576 v -7.19667 h 2.5622534 q 1.597641,0 2.637615,0.46567 1.055045,0.45508 1.055045,1.5875 z" />
        <path
           inkscape:connector-curvature="0"
           id="path2181"
           style="font-style:normal;font-variant:normal;font-weight:200;font-stretch:normal;font-size:40px;line-height:1.25;font-family:Palanquin;-inkscape-font-specification:'Palanquin, Ultra-Light';font-variant-ligatures:normal;font-variant-caps:normal;font-variant-numeric:normal;font-feature-settings:normal;text-align:start;letter-spacing:0px;word-spacing:0px;writing-mode:lr-tb;text-anchor:start;fill:#000000;fill-opacity:1;stroke:none;stroke-width:0.31133807"
           d="m 18.859844,294.17771 v -7.19667 h 0.844037 v 7.19667 z" />
        <path
           inkscape:connector-curvature="0"
           id="path2183"
           style="font-style:normal;font-variant:normal;font-weight:200;font-stretch:normal;font-size:40px;line-height:1.25;font-family:Palanquin;-inkscape-font-specification:'Palanquin, Ultra-Light';font-variant-ligatures:normal;font-variant-caps:normal;font-variant-numeric:normal;font-feature-settings:normal;text-align:start;letter-spacing:0px;word-spacing:0px;writing-mode:lr-tb;text-anchor:start;fill:#000000;fill-opacity:1;stroke:none;stroke-width:0.31133807"
           d="m 25.337306,294.17771 -3.90367,-7.08025 0.828965,-0.11642 3.481651,6.43467 3.346002,-6.43467 h 0.813892 l -3.722805,7.19667 z" />
        <path
           inkscape:connector-curvature="0"
           id="path2185"
           style="font-style:normal;font-variant:normal;font-weight:200;font-stretch:normal;font-size:40px;line-height:1.25;font-family:Palanquin;-inkscape-font-specification:'Palanquin, Ultra-Light';font-variant-ligatures:normal;font-variant-caps:normal;font-variant-numeric:normal;font-feature-settings:normal;text-align:start;letter-spacing:0px;word-spacing:0px;writing-mode:lr-tb;text-anchor:start;fill:#000000;fill-opacity:1;stroke:none;stroke-width:0.31133807"
           d="m 34.439192,287.75363 -1.95937,3.7465 h 3.994101 z m 0.406946,-0.77259 3.918741,7.09084 -0.844037,0.10583 -1.205765,-2.20133 h -4.461336 l -1.145478,2.20133 h -0.813892 l 3.722803,-7.19667 z" />
        <path
           inkscape:connector-curvature="0"
           id="path2187"
           style="font-style:normal;font-variant:normal;font-weight:200;font-stretch:normal;font-size:40px;line-height:1.25;font-family:Palanquin;-inkscape-font-specification:'Palanquin, Ultra-Light';font-variant-ligatures:normal;font-variant-caps:normal;font-variant-numeric:normal;font-feature-settings:normal;text-align:start;letter-spacing:0px;word-spacing:0px;writing-mode:lr-tb;text-anchor:start;fill:#000000;fill-opacity:1;stroke:none;stroke-width:0.31133807"
           d="m 46.465065,287.44671 h -3.225424 v 6.731 h -0.844037 v -6.731 h -3.210357 v -0.46567 h 7.204457 z" />
        <path
           inkscape:connector-curvature="0"
           id="path2189"
           style="font-style:normal;font-variant:normal;font-weight:200;font-stretch:normal;font-size:40px;line-height:1.25;font-family:Palanquin;-inkscape-font-specification:'Palanquin, Ultra-Light';font-variant-ligatures:normal;font-variant-caps:normal;font-variant-numeric:normal;font-feature-settings:normal;text-align:start;letter-spacing:0px;word-spacing:0px;writing-mode:lr-tb;text-anchor:start;fill:#000000;fill-opacity:1;stroke:none;stroke-width:0.31133807"
           d="m 48.238623,294.17771 v -7.19667 h 5.335516 l 0.07536,0.4445 h -4.56684 v 2.84692 h 3.014416 l 0.07537,0.4445 H 49.08267 v 2.99508 h 4.823066 l 0.09043,0.46567 z" />
      </g>
      <path
         inkscape:connector-curvature="0"
         id="rect6610"
         d="m 24.870833,217.62497 c -7.919725,0 -14.295768,6.37553 -14.295768,14.29525 v 10.27793 H 9.0351074 c -0.9335449,0 -1.6851685,0.75162 -1.6851685,1.68517 v 34.84645 c 0,0.93354 0.7516236,1.68517 1.6851685,1.68517 H 43.881558 c 0.933545,0 1.685168,-0.75163 1.685168,-1.68517 v -34.84645 c 0,-0.93355 -0.751623,-1.68517 -1.685168,-1.68517 h -1.539957 v -10.27793 c 0,-7.91972 -6.376043,-14.29525 -14.295768,-14.29525 z m 0.434599,4.52582 h 2.305802 c 5.75233,0 10.383345,4.63102 10.383345,10.38335 v 9.66401 H 14.922087 v -9.66401 c 0,-5.75233 4.631016,-10.38335 10.383345,-10.38335 z m 1.152901,34.35191 a 4.8034596,4.8034596 0 0 1 4.803325,4.80384 4.8034596,4.8034596 0 0 1 -2.336808,4.11551 l 1.793687,6.9758 h -8.520409 l 1.793689,-6.97631 a 4.8034596,4.8034596 0 0 1 -2.336808,-4.115 4.8034596,4.8034596 0 0 1 4.803324,-4.80384 z m 0,1.10277 a 3.7009728,3.7009728 0 0 0 -3.701066,3.70107 3.7009728,3.7009728 0 0 0 2.414323,3.46491 l -1.260905,6.66367 h 5.095297 l -1.26039,-6.66109 a 3.7009728,3.7009728 0 0 0 2.413807,-3.46749 3.7009728,3.7009728 0 0 0 -3.701066,-3.70107 z"
         style="opacity:1;fill:#cc2c32;fill-opacity:1;stroke:none;stroke-width:2.64583325;stroke-miterlimit:4;stroke-dasharray:none;stroke-opacity:1" />
    </g>
  </g>
</svg>
